<svg width="current" height="current" viewBox="0 0 32 32" fill="none" xmlns="http://www.w3.org/2000/svg">
<path d="M26.56 16.25C26.56 15.47 26.49 14.72 26.36 14H16V18.26H21.92C21.66 19.63 20.88 20.79 19.71 21.57V24.34H23.28C25.36 22.42 26.56 19.6 26.56 16.25Z" fill="#4285F4"/>
<path d="M16 27C18.97 27 21.46 26.02 23.28 24.34L19.71 21.57C18.73 22.23 17.48 22.63 16 22.63C13.14 22.63 10.71 20.7 9.83999 18.1H6.17999V20.94C7.98999 24.53 11.7 27 16 27Z" fill="#34A853"/>
<path d="M9.84 18.09C9.62 17.43 9.49 16.73 9.49 16C9.49 15.27 9.62 14.57 9.84 13.91V11.07H6.18C5.43 12.55 5 14.22 5 16C5 17.78 5.43 19.45 6.18 20.93L9.03 18.71L9.84 18.09Z" fill="#FBBC05"/>
<path d="M16 9.38C17.62 9.38 19.06 9.94 20.21 11.02L23.36 7.87C21.45 6.09 18.97 5 16 5C11.7 5 7.98999 7.47 6.17999 11.07L9.83999 13.91C10.71 11.31 13.14 9.38 16 9.38Z" fill="#EA4335"/>
</svg>
