<svg width="current" height="current" viewBox="0 0 32 32" fill="none" xmlns="http://www.w3.org/2000/svg">
<g clip-path="url(#clip0_1613_1154)">
<path d="M19.75 4C20.9137 4.00263 22.0637 4.25148 23.1244 4.73018C24.1851 5.20888 25.1325 5.9066 25.9044 6.77751C26.6762 7.64841 27.2551 8.67279 27.6029 9.78332C27.9506 10.8938 28.0595 12.0654 27.9223 13.221C27.7851 14.3766 27.4049 15.4901 26.8068 16.4883C26.2086 17.4865 25.406 18.3469 24.4516 19.0128C23.4973 19.6788 22.4129 20.1353 21.2696 20.3523C20.1263 20.5693 18.95 20.5419 17.818 20.272L16.42 21.67C16.2092 21.881 15.9233 21.9997 15.625 22H14.5V23.125C14.4997 23.4233 14.381 23.7092 14.17 23.92L13.42 24.67C13.2092 24.881 12.9233 24.9997 12.625 25H11.5V26.125C11.4997 26.4233 11.381 26.7092 11.17 26.92L10.42 27.67C10.2092 27.881 9.92327 27.9997 9.625 28H6.625C5.92881 28 5.26113 27.7234 4.76884 27.2312C4.27656 26.7389 4 26.0712 4 25.375V22.375C4 22.0765 4.1185 21.7915 4.33 21.58L11.728 14.182C11.4358 12.9688 11.4226 11.7052 11.6893 10.4862C11.9561 9.26718 12.496 8.12457 13.2682 7.14438C14.0405 6.16418 15.025 5.37194 16.1478 4.8273C17.2705 4.28265 18.5021 3.99979 19.75 4ZM13.75 12.25C13.7485 12.8965 13.8535 13.54 14.0575 14.1535C14.1238 14.3518 14.1334 14.5646 14.0855 14.7681C14.0375 14.9716 13.9338 15.1577 13.786 15.3055L6.25 22.84V25.375C6.25 25.582 6.418 25.75 6.625 25.75H9.16L9.25 25.66V23.875C9.25 23.5766 9.36853 23.2905 9.5795 23.0795C9.79048 22.8685 10.0766 22.75 10.375 22.75H12.16L12.25 22.66V20.875C12.25 20.5766 12.3685 20.2905 12.5795 20.0795C12.7905 19.8685 13.0766 19.75 13.375 19.75H15.16L16.6945 18.2125C16.8425 18.0649 17.0287 17.9615 17.2321 17.9138C17.4356 17.8661 17.6484 17.8761 17.8465 17.9425C19.0501 18.3452 20.3504 18.3558 21.5605 17.9728C22.7705 17.5898 23.8279 16.833 24.5807 15.8111C25.3335 14.7893 25.7428 13.555 25.7499 12.2859C25.757 11.0167 25.3614 9.77798 24.6201 8.7478C23.8787 7.71763 22.8298 6.94908 21.6241 6.55264C20.4184 6.15621 19.1181 6.15233 17.91 6.54154C16.702 6.93076 15.6485 7.69302 14.901 8.71875C14.1535 9.74447 13.7505 10.9808 13.75 12.25ZM20.5 13C20.1022 13 19.7206 12.842 19.4393 12.5607C19.158 12.2794 19 11.8978 19 11.5C19 11.1022 19.158 10.7206 19.4393 10.4393C19.7206 10.158 20.1022 10 20.5 10C20.8978 10 21.2794 10.158 21.5607 10.4393C21.842 10.7206 22 11.1022 22 11.5C22 11.8978 21.842 12.2794 21.5607 12.5607C21.2794 12.842 20.8978 13 20.5 13Z" fill="currentColor"/>
</g>
<defs>
<clipPath id="clip0_1613_1154">
<rect width="24" height="24" fill="none" transform="translate(4 4)"/>
</clipPath>
</defs>
</svg>
