<svg width="current" height="current" viewBox="0 0 64 64" fill="none" xmlns="http://www.w3.org/2000/svg">
<path d="M47.656 46.96C46.888 47.344 45.8 47.6853 44.392 47.984C42.984 48.24 41.4693 48.4533 39.848 48.624C38.2693 48.7947 36.6907 48.9227 35.112 49.008C33.576 49.0933 32.296 49.136 31.272 49.136C30.1627 49.136 28.8187 49.0933 27.24 49.008C25.704 48.88 24.168 48.7307 22.632 48.56C21.096 48.3467 19.6667 48.112 18.344 47.856C17.0213 47.6 16.04 47.3227 15.4 47.024C14.9733 46.8107 14.504 46.5547 13.992 46.256C13.5227 45.9147 13.0533 45.5307 12.584 45.104C12.1147 44.6347 11.688 44.1227 11.304 43.568C10.92 42.9707 10.664 42.3093 10.536 41.584C10.2373 40.048 10.024 38.1707 9.89601 35.952C9.81068 33.6907 9.76801 31.408 9.76801 29.104C9.81068 26.8 9.89601 24.624 10.024 22.576C10.1947 20.528 10.3653 18.928 10.536 17.776C10.664 17.0933 10.8987 16.4747 11.24 15.92C11.624 15.3227 12.0507 14.8107 12.52 14.384C13.032 13.9573 13.544 13.6373 14.056 13.424C14.6107 13.168 15.1013 13.04 15.528 13.04H47.208C47.6347 13.04 48.104 13.168 48.616 13.424C49.1707 13.6373 49.6827 13.9573 50.152 14.384C50.6213 14.8107 51.048 15.3227 51.432 15.92C51.816 16.4747 52.072 17.072 52.2 17.712C52.456 18.864 52.648 20.4853 52.776 22.576C52.904 24.624 52.968 26.8213 52.968 29.168C53.0107 31.472 52.968 33.7547 52.84 36.016C52.7547 38.2347 52.5627 40.0907 52.264 41.584C52.0933 42.352 51.816 43.0347 51.432 43.632C51.0907 44.2293 50.6853 44.7413 50.216 45.168C49.7893 45.552 49.3413 45.8933 48.872 46.192C48.4453 46.4907 48.04 46.7467 47.656 46.96ZM42.152 24.24C42.1093 23.5147 41.6827 23.152 40.872 23.152H21.992C21.5653 23.152 21.2453 23.216 21.032 23.344C20.8187 23.472 20.6693 23.7707 20.584 24.24C20.5413 24.624 20.4987 25.392 20.456 26.544C20.4133 27.6533 20.392 28.8907 20.392 30.256C20.392 31.5787 20.392 32.8373 20.392 34.032C20.4347 35.2267 20.4987 36.08 20.584 36.592C20.712 37.5307 21.1813 38.0853 21.992 38.256C23.1013 38.4693 24.5093 38.64 26.216 38.768C27.9227 38.896 29.736 38.96 31.656 38.96C33.448 38.96 35.1333 38.896 36.712 38.768C38.2907 38.64 39.5707 38.4907 40.552 38.32C41.1493 38.2347 41.5333 38.064 41.704 37.808C41.9173 37.5093 42.0667 37.104 42.152 36.592C42.2373 36.1227 42.28 35.2907 42.28 34.096C42.28 32.8587 42.28 31.5787 42.28 30.256C42.28 28.8907 42.2587 27.632 42.216 26.48C42.216 25.328 42.1947 24.5813 42.152 24.24Z" fill="currentColor"/>
<path d="M46.2058 52.5874C44.8421 52.2116 43.3952 51.7783 41.8649 51.2876C40.3539 50.8224 38.9293 50.3923 37.5912 49.9973C36.5667 49.6467 35.8618 48.9756 35.4765 47.9842C35.0848 47.0375 35.0419 46.0487 35.3477 45.0179C35.6343 43.9615 36.2124 43.1864 37.0822 42.6924C37.9263 42.2177 38.8575 42.178 39.8756 42.5734L45.1198 44.5152L44.7091 38.9382C44.6573 38.4966 44.7304 38.0613 44.9282 37.6323C45.1452 37.2288 45.4167 36.8444 45.7426 36.4792C46.0622 36.1587 46.4426 35.8926 46.884 35.6808C47.3253 35.469 47.7891 35.3404 48.2754 35.295C48.8577 35.2174 49.4018 35.2487 49.9076 35.3888C50.407 35.5737 50.8522 35.8195 51.243 36.1262C51.653 36.4584 51.9735 36.858 52.2046 37.3249C52.4548 37.8174 52.5995 38.3292 52.6386 38.8603C52.6087 40.3644 52.5915 41.8588 52.587 43.3436C52.6019 44.854 52.6134 46.3068 52.6217 47.7019C52.5777 48.3356 52.4347 49.0238 52.1925 49.7665C51.9247 50.5285 51.3944 51.2076 50.6016 51.8039C49.8599 52.3617 49.0956 52.6763 48.3085 52.7477C47.5214 52.8192 46.8205 52.7657 46.2058 52.5874Z" fill="currentColor"/>
</svg>
